<?xml version="1.0" standalone="no"?>
<!DOCTYPE svg PUBLIC "-//W3C//DTD SVG 20010904//EN"
 "http://www.w3.org/TR/2001/REC-SVG-20010904/DTD/svg10.dtd">
<svg version="1.0" xmlns="http://www.w3.org/2000/svg"
 width="500.000000pt" height="500.000000pt" viewBox="0 0 500.000000 500.000000"
 preserveAspectRatio="xMidYMid meet">
<metadata>
Created by potrace 1.14, written by Peter Selinger 2001-2017
</metadata>
<g transform="translate(0.000000,500.000000) scale(0.100000,-0.100000)"
fill="#000000" stroke="none">
<path d="M0 2500 l0 -2500 2500 0 2500 0 0 2500 0 2500 -2500 0 -2500 0 0
-2500z m2865 1816 c577 -122 1047 -486 1306 -1011 211 -429 244 -931 93 -1393
-95 -291 -291 -593 -512 -791 -74 -67 -206 -168 -256 -196 -38 -22 -34 -18 77
75 287 239 494 603 558 981 18 106 20 152 17 319 -4 167 -9 212 -32 315 -34
145 -63 229 -126 361 -166 346 -481 650 -829 799 -105 44 -251 89 -366 112
-130 25 -452 25 -590 -1 -255 -47 -541 -176 -730 -329 -303 -245 -505 -567
-591 -942 -23 -102 -28 -148 -32 -315 -3 -167 -1 -213 17 -319 63 -369 273
-744 542 -968 41 -34 85 -72 99 -83 l25 -21 -33 18 c-19 10 -71 46 -117 81
-573 429 -849 1160 -704 1863 145 707 700 1273 1404 1434 156 36 247 44 455
40 171 -3 225 -8 325 -29z m-234 -646 c337 -34 632 -173 869 -410 355 -354
493 -841 378 -1335 -20 -88 -76 -250 -84 -242 -2 2 1 30 8 63 17 89 15 333 -5
440 -32 178 -118 382 -225 534 -67 95 -234 257 -332 322 -460 304 -1019 304
-1476 2 -259 -171 -463 -460 -539 -764 -47 -185 -53 -384 -19 -585 10 -62 -48
93 -76 200 -56 220 -63 433 -20 643 123 608 630 1068 1245 1131 116 12 161 12
276 1z m9 -856 c203 -47 366 -197 436 -399 24 -69 28 -95 28 -190 -1 -92 -5
-123 -27 -190 -49 -149 -156 -275 -293 -347 -92 -48 -179 -69 -284 -69 -170 0
-308 57 -430 180 -114 115 -180 273 -180 428 1 121 58 279 139 381 43 54 137
129 204 164 106 54 281 72 407 42z m-930 -209 c-99 -196 -114 -448 -41 -662
46 -135 104 -226 211 -333 112 -112 211 -174 350 -221 84 -29 111 -33 235 -37
200 -6 322 24 490 121 98 56 247 208 304 310 149 264 158 559 26 832 l-34 70
36 -40 c60 -67 152 -215 184 -298 55 -145 73 -237 72 -392 0 -158 -14 -235
-67 -375 -53 -141 -118 -241 -231 -356 -150 -151 -287 -232 -485 -286 -74 -20
-108 -23 -260 -23 -190 0 -243 9 -390 67 -223 88 -428 274 -539 488 -83 160
-114 293 -114 485 0 111 4 158 21 228 29 118 73 226 128 314 40 65 130 183
138 183 2 0 -13 -34 -34 -75z"/>
</g>
</svg>
